<?xml version="1.0" ?><svg id="Layer_1" style="enable-background:new 0 0 512 512;" version="1.1" viewBox="0 0 512 512" xml:space="preserve" xmlns="http://www.w3.org/2000/svg" xmlns:xlink="http://www.w3.org/1999/xlink"><style type="text/css">
	.st0{fill:#FFFFFF;}
	.st1{fill:#839097;}
	.st2{fill:#2CACE3;}
</style><g><g><path class="st0" d="M439.5,504.5c0-165.7,0-331.3,0-497c-78.4,0-156.9,0-235.3,0c-43.9,43.9-87.8,87.8-131.7,131.7    c0,121.8,0,243.5,0,365.3C194.8,504.5,317.2,504.5,439.5,504.5L439.5,504.5z"/></g><g><g><path class="st1" d="M447,512H65V136.1L201.1,0H447V512z M80,497h352V15H207.3L80,142.3V497z"/></g></g><g><polygon class="st1" points="65.1,146 211,146 211,0.1 65.1,146   "/></g><g><polygon class="st1" points="241,127.6 241,146 391,146 391,127.6 241,127.6   "/></g><g><polygon class="st1" points="121.5,245.6 121.5,264 390,264 390,245.6 121.5,245.6   "/></g><g><polygon class="st1" points="121.5,304.6 121.5,323 390,323 390,304.6 121.5,304.6   "/></g><g><polygon class="st1" points="121.5,363.6 121.5,382 390,382 390,363.6 121.5,363.6   "/></g><g><polygon class="st1" points="121.5,422.6 121.5,441 271.5,441 271.5,422.6 121.5,422.6   "/></g><g><polygon class="st1" points="121.5,186.6 121.5,205 390.5,205 390.5,186.6 121.5,186.6   "/></g><g><polygon class="st2" points="65.1,146 211,146 211,0.1 200.7,0 65.1,135.8 65.1,146   "/></g><g><polygon class="st0" points="171.7,146 171.7,136.2 150.6,136.2 150.6,96.7 139.6,96.7 139.6,146 171.7,146   "/></g></g></svg>